<?xml version="1.0" encoding="iso-8859-1"?>
<!-- Generator: Adobe Illustrator 19.0.0, SVG Export Plug-In . SVG Version: 6.00 Build 0)  -->
<svg version="1.1" id="Layer_1" xmlns="http://www.w3.org/2000/svg" xmlns:xlink="http://www.w3.org/1999/xlink" x="0px" y="0px"
	 viewBox="0 0 512.052 512.052" style="enable-background:new 0 0 512.052 512.052;" xml:space="preserve">
<g transform="translate(0 -1)">
	<path style="fill:#E8EDEE;" d="M290.365,29.865C274.484-1.584,256.026,1.054,256.026,1.054s-18.458-2.638-34.339,28.811
		C210.31,52.393,27.622,337.872,6.378,371.066c-1.328,2.074-2.013,4.452-2.013,6.916v67.15c0,8.183,7.515,14.301,15.525,12.644
		l88.611-18.337V306.25c0-14.093,10.561-26.728,24.637-27.466c15.013-0.79,27.431,11.151,27.431,25.999V428.67l45.125-9.337
		l15.62-305.464l17.356-17.356h34.712l17.356,17.356l15.62,305.464l45.125,9.337V306.25c0-14.093,10.561-26.728,24.637-27.466
		c15.013-0.79,27.431,11.151,27.431,25.999v134.656l88.611,18.337c8.01,1.658,15.525-4.46,15.525-12.644v-67.15
		c0-2.465-0.677-4.842-2.013-6.916C484.43,337.872,301.741,52.393,290.365,29.865"/>
	<path style="fill:#B0B6BB;" d="M108.501,304.781v147.525v8.678c0,4.79,3.888,8.678,8.678,8.678h34.712
		c4.79,0,8.678-3.888,8.678-8.678v-8.678V304.781c0-14.379-11.655-26.034-26.034-26.034l0,0
		C120.156,278.747,108.501,290.401,108.501,304.781"/>
	<polygon style="fill:#838A8E;" points="108.501,339.493 160.569,339.493 160.569,322.137 108.501,322.137 	"/>
	<path style="fill:#F3D55B;" d="M134.535,513.052c-4.79,0-8.678-3.888-8.678-8.678v-34.712c0-4.79,3.888-8.678,8.678-8.678
		s8.678,3.888,8.678,8.678v34.712C143.213,509.164,139.326,513.052,134.535,513.052"/>
	<g>
		<path style="fill:#838A8E;" d="M143.213,365.526c0,4.79-3.888,8.678-8.678,8.678s-8.678-3.888-8.678-8.678
			s3.888-8.678,8.678-8.678S143.213,360.736,143.213,365.526"/>
		<path style="fill:#838A8E;" d="M143.213,400.238c0,4.79-3.888,8.678-8.678,8.678s-8.678-3.888-8.678-8.678
			s3.888-8.678,8.678-8.678S143.213,395.448,143.213,400.238"/>
		<path style="fill:#838A8E;" d="M143.213,434.95c0,4.79-3.888,8.678-8.678,8.678s-8.678-3.888-8.678-8.678s3.888-8.678,8.678-8.678
			S143.213,430.16,143.213,434.95"/>
	</g>
	<g>
		<path d="M264.705,244.035c0,4.79-3.888,8.678-8.678,8.678c-4.79,0-8.678-3.888-8.678-8.678s3.888-8.678,8.678-8.678
			C260.817,235.357,264.705,239.245,264.705,244.035"/>
		<path d="M264.705,278.747c0,4.79-3.888,8.678-8.678,8.678c-4.79,0-8.678-3.888-8.678-8.678s3.888-8.678,8.678-8.678
			C260.817,270.069,264.705,273.957,264.705,278.747"/>
		<path d="M264.705,313.459c0,4.79-3.888,8.678-8.678,8.678c-4.79,0-8.678-3.888-8.678-8.678s3.888-8.678,8.678-8.678
			C260.817,304.781,264.705,308.668,264.705,313.459"/>
	</g>
	<path style="fill:#B0B6BB;" d="M351.484,304.781v147.525v8.678c0,4.79,3.888,8.678,8.678,8.678h34.712
		c4.79,0,8.678-3.888,8.678-8.678v-8.678V304.781c0-14.379-11.655-26.034-26.034-26.034l0,0
		C363.139,278.747,351.484,290.401,351.484,304.781"/>
	<polygon style="fill:#838A8E;" points="351.484,339.493 403.552,339.493 403.552,322.137 351.484,322.137 	"/>
	<path style="fill:#F3D55B;" d="M377.518,513.052c-4.79,0-8.678-3.888-8.678-8.678v-34.712c0-4.79,3.888-8.678,8.678-8.678
		s8.678,3.888,8.678,8.678v34.712C386.196,509.164,382.309,513.052,377.518,513.052"/>
	<g>
		<path style="fill:#838A8E;" d="M386.196,365.526c0,4.79-3.888,8.678-8.678,8.678s-8.678-3.888-8.678-8.678
			s3.888-8.678,8.678-8.678S386.196,360.736,386.196,365.526"/>
		<path style="fill:#838A8E;" d="M386.196,400.238c0,4.79-3.888,8.678-8.678,8.678s-8.678-3.888-8.678-8.678
			s3.888-8.678,8.678-8.678S386.196,395.448,386.196,400.238"/>
		<path style="fill:#838A8E;" d="M386.196,434.95c0,4.79-3.888,8.678-8.678,8.678s-8.678-3.888-8.678-8.678s3.888-8.678,8.678-8.678
			S386.196,430.16,386.196,434.95"/>
	</g>
	<path style="fill:#B0B6BB;" d="M293.149,452.306h-74.24c-8.131,0-14.588-6.812-14.162-14.926l16.566-323.515l17.356-17.356h34.712
		l17.356,17.356l16.575,323.515C307.737,445.494,301.272,452.306,293.149,452.306"/>
	<path style="fill:#F3D55B;" d="M256.027,513.052c-4.79,0-8.678-3.888-8.678-8.678V374.204c0-4.79,3.888-8.678,8.678-8.678
		c4.79,0,8.678,3.888,8.678,8.678v130.169C264.705,509.164,260.817,513.052,256.027,513.052"/>
	<polygon style="fill:#8697CB;" points="293.85,174.611 290.734,113.865 273.378,96.509 238.667,96.509 221.311,113.865 
		218.204,174.611 	"/>
	<polygon style="fill:#434C6D;" points="247.349,174.611 264.705,174.611 264.705,96.509 247.349,96.509 	"/>
</g>
<g>
</g>
<g>
</g>
<g>
</g>
<g>
</g>
<g>
</g>
<g>
</g>
<g>
</g>
<g>
</g>
<g>
</g>
<g>
</g>
<g>
</g>
<g>
</g>
<g>
</g>
<g>
</g>
<g>
</g>
</svg>
